HIERARCHY
ROOT Hips
{
	OFFSET -6.501393 103.544830 -3.308209
	CHANNELS 6 Xposition Yposition Zposition Zrotation Yrotation Xrotation 
	JOINT Chest
	{
		OFFSET 3.490766 13.188873 -0.149589
		CHANNELS 6 Xposition Yposition Zposition Zrotation Yrotation Xrotation 
		JOINT Chest2
		{
			OFFSET 2.498665 20.695694 4.950911
			CHANNELS 6 Xposition Yposition Zposition Zrotation Yrotation Xrotation 
			JOINT Chest3
			{
				OFFSET 2.586676 14.483231 2.522879
				CHANNELS 6 Xposition Yposition Zposition Zrotation Yrotation Xrotation 
				JOINT Neck
				{
					OFFSET 3.658716 16.642105 2.875753
					CHANNELS 6 Xposition Yposition Zposition Zrotation Yrotation Xrotation 
					JOINT Head
					{
						OFFSET 0.562498 9.917938 3.338517
						CHANNELS 6 Xposition Yposition Zposition Zrotation Yrotation Xrotation 
						End Site #name: Head_end_site
						{
							OFFSET 0.623727 9.927261 3.299727
						}
					}
				}
				JOINT LeftCollar
				{
					OFFSET 3.158933 11.826752 7.207877
					CHANNELS 6 Xposition Yposition Zposition Zrotation Yrotation Xrotation 
					JOINT LeftUpArm
					{
						OFFSET 9.662516 -4.699112 13.894368
						CHANNELS 6 Xposition Yposition Zposition Zrotation Yrotation Xrotation 
						JOINT LeftLowArm
						{
							OFFSET -26.061760 -12.379883 17.528591
							CHANNELS 6 Xposition Yposition Zposition Zrotation Yrotation Xrotation 
							JOINT LeftHand
							{
								OFFSET -23.105013 -13.493835 13.602276
								CHANNELS 6 Xposition Yposition Zposition Zrotation Yrotation Xrotation 
								End Site #name: LeftHand_end_site
								{
									OFFSET -5.049747 -2.949127 2.972858
								}
							}
						}
					}
				}
				JOINT RightCollar
				{
					OFFSET -1.958067 14.041336 0.903037
					CHANNELS 6 Xposition Yposition Zposition Zrotation Yrotation Xrotation 
					JOINT RightUpArm
					{
						OFFSET -7.902977 5.073425 -14.842493
						CHANNELS 6 Xposition Yposition Zposition Zrotation Yrotation Xrotation 
						JOINT RightLowArm
						{
							OFFSET -31.237156 3.028915 12.441875
							CHANNELS 6 Xposition Yposition Zposition Zrotation Yrotation Xrotation 
							JOINT RightHand
							{
								OFFSET 1.770481 -9.929611 28.270538
								CHANNELS 6 Xposition Yposition Zposition Zrotation Yrotation Xrotation 
								End Site #name: RightHand_end_site
								{
									OFFSET 0.386944 -2.170212 6.178812
								}
							}
						}
					}
				}
			}
		}
	}
	JOINT LeftUpLeg
	{
		OFFSET 6.008414 -1.501137 7.878114
		CHANNELS 6 Xposition Yposition Zposition Zrotation Yrotation Xrotation 
		JOINT LeftLowLeg
		{
			OFFSET -32.490929 -13.194344 31.847103
			CHANNELS 6 Xposition Yposition Zposition Zrotation Yrotation Xrotation 
			JOINT LeftFoot
			{
				OFFSET -27.394722 -30.609779 17.695694
				CHANNELS 6 Xposition Yposition Zposition Zrotation Yrotation Xrotation 
				JOINT LeftToe
				{
					OFFSET -14.301807 2.204399 18.712517
					CHANNELS 6 Xposition Yposition Zposition Zrotation Yrotation Xrotation 
					End Site #name: LeftToe_end_site
					{
						OFFSET -6.634720 15.950195 16.159538
					}
				}
			}
		}
	}
	JOINT RightUpLeg
	{
		OFFSET -6.008467 1.500946 -7.878115
		CHANNELS 6 Xposition Yposition Zposition Zrotation Yrotation Xrotation 
		JOINT RightLowLeg
		{
			OFFSET -7.669543 -46.691193 2.263450
			CHANNELS 6 Xposition Yposition Zposition Zrotation Yrotation Xrotation 
			JOINT RightFoot
			{
				OFFSET 16.419405 -39.122486 -14.156796
				CHANNELS 6 Xposition Yposition Zposition Zrotation Yrotation Xrotation 
				JOINT RightToe
				{
					OFFSET -13.268997 -16.468420 10.596312
					CHANNELS 6 Xposition Yposition Zposition Zrotation Yrotation Xrotation 
					End Site #name: RightToe_end_site
					{
						OFFSET -19.207935 -1.991539 13.661808
					}
				}
			}
		}
	}
}
MOTION
Frames: 6
Frame Time: 0.033333
-23.743618 107.149261 1.375644 16.019630 26.343900 15.774023 3.561458 13.071196 -0.174644 -10.802524 1.853092 -17.802265 2.481943 20.529860 4.926568 -3.766353 4.013222 0.435438 2.665663 14.382671 2.566687 2.053681 -0.044914 5.843778 3.579450 16.481499 2.807303 0.422844 2.230549 -3.627263 0.565760 9.828956 3.253838 0.596594 1.246115 3.836282 3.165367 11.693788 7.159356 -2.652202 18.021773 5.132537 9.605134 -4.597620 13.836453 12.341517 20.095395 -5.284785 -25.910036 -12.302880 17.406590 -34.291098 -16.285946 -26.543181 -22.971579 -13.500858 13.416954 -1.535235 1.971516 1.954943 -1.914036 13.945780 0.940485 7.257407 -0.738646 -9.040082 -7.825857 5.025357 -14.659878 15.522525 -13.362866 -0.461484 -30.892092 3.016772 12.384586 -9.154422 13.783884 -13.869440 1.714846 -9.884306 28.022827 -6.496449 -0.610238 0.142401 5.975750 -1.521884 7.825876 31.300401 -7.568218 32.766948 -32.162079 -13.018316 31.615326 -3.798884 1.054584 -5.323750 -27.164783 -30.415260 17.498791 2.992487 -2.262869 -3.552071 -14.183601 2.150501 18.540302 3.033289 7.095634 -1.495259 -5.847983 1.514981 -7.971692 -14.727817 -3.473666 -4.424146 -7.632998 -46.267441 2.239433 -5.996054 2.925788 -11.719166 16.286909 -38.731888 -14.016709 13.962719 -16.336435 10.602263 -13.084590 -16.415495 10.505406 -0.463334 2.113052 -1.355677 
-23.031834 107.180779 1.322317 15.626431 25.996366 15.513924 3.560000 13.075801 -0.171212 -10.642110 1.752902 -18.067421 2.483743 20.538858 4.923491 -3.542869 4.062065 0.195439 2.663975 14.379715 2.566812 1.893173 -0.151053 5.610571 3.574461 16.478254 2.811399 0.380688 2.169655 -3.623048 0.567345 9.831076 3.248696 0.382151 1.111141 3.644893 3.166100 11.699987 7.157211 -2.699103 17.843521 5.130488 9.608822 -4.596470 13.833918 12.825074 19.963501 -4.550291 -25.909752 -12.301525 17.404163 -34.880366 -16.143420 -26.559435 -22.967173 -13.508039 13.416440 -1.674088 2.090920 1.672199 -1.912965 13.946695 0.943609 7.357452 -1.079727 -8.634804 -7.827060 5.030571 -14.659204 15.842040 -13.395545 -0.497896 -30.891865 3.018145 12.382628 -8.760744 13.758063 -13.203706 1.712218 -9.882983 28.014820 -6.348150 -0.601682 0.111380 5.973252 -1.523431 7.822814 31.357060 -7.889729 32.673521 -32.162865 -13.022538 31.616659 -3.857206 0.889422 -5.417539 -27.158283 -30.415462 17.500462 3.207912 -2.623288 -3.305085 -14.184217 2.148780 18.540356 3.220692 7.343819 -1.736817 -5.851762 1.518540 -7.968024 -14.642266 -3.489179 -4.613379 -7.640510 -46.269741 2.238595 -5.754223 2.970884 -11.448901 16.287035 -38.739216 -14.017596 13.763892 -16.244673 10.316937 -13.082249 -16.412786 10.509636 -0.337049 2.266542 -1.053270 
-21.317284 107.219055 1.185123 15.568465 25.311499 15.911043 3.557262 13.086065 -0.164542 -10.643019 1.967829 -18.012046 2.481897 20.541777 4.917356 -3.383337 3.390297 0.519374 2.662406 14.372451 2.566801 2.024154 -0.186219 5.377765 3.573893 16.481339 2.809273 0.756297 2.436299 -3.120917 0.567659 9.835230 3.256377 0.153806 0.609829 3.403060 3.167237 11.699472 7.156898 -2.932004 18.343270 5.002221 9.611446 -4.599543 13.837240 13.195389 19.545034 -4.194874 -25.909328 -12.294079 17.406553 -34.996131 -16.623077 -26.622720 -22.961554 -13.503491 13.418956 -1.735400 1.834593 1.162010 -1.913684 13.945895 0.941920 7.417774 -1.276544 -8.904732 -7.830781 5.030855 -14.670276 16.215122 -13.686420 -0.766290 -30.899096 3.023404 12.383125 -7.296029 13.353882 -11.419944 1.715289 -9.881787 28.019686 -5.930530 -0.773031 0.183271 5.976794 -1.522278 7.826673 31.596196 -7.690294 32.217692 -32.168880 -13.023807 31.612675 -4.595835 0.782801 -5.805151 -27.156170 -30.411503 17.501684 3.093712 -3.103723 -3.648842 -14.187519 2.153707 18.545507 2.990998 7.547788 -1.869714 -5.855490 1.514205 -7.960716 -14.140202 -3.133225 -4.594202 -7.639795 -46.265499 2.232332 -5.333889 2.367518 -11.490712 16.291630 -38.748463 -14.026837 13.461172 -16.411642 10.680315 -13.086471 -16.422628 10.513262 -0.230610 2.216305 -1.049264 
-18.920158 107.226128 0.985638 15.064182 24.631221 15.928315 3.557754 13.101475 -0.154554 -10.932865 1.734489 -18.449507 2.478709 20.559038 4.917923 -2.885155 3.080102 0.592690 2.660589 14.371170 2.559996 2.445320 -0.266410 5.381564 3.561664 16.490599 2.809299 1.177795 2.445232 -3.153862 0.570689 9.835723 3.256979 0.017339 0.276530 3.127733 3.166801 11.698410 7.160458 -3.427077 19.202197 5.035510 9.612539 -4.598594 13.832780 14.060848 19.168086 -3.567172 -25.913338 -12.279870 17.413507 -35.287991 -17.285044 -26.433851 -22.953171 -13.499649 13.429699 -1.644578 2.076429 0.204679 -1.906627 13.940960 0.946086 7.970595 -1.705591 -8.896730 -7.830503 5.037473 -14.681715 17.287832 -14.386318 -1.330818 -30.903786 3.026110 12.373982 -5.551346 13.628419 -8.641262 1.712935 -9.876993 28.019753 -5.498062 -0.938296 0.557373 5.982402 -1.527375 7.822915 31.406098 -7.403272 32.068524 -32.173077 -13.023028 31.602028 -5.344349 0.584550 -5.763838 -27.156059 -30.410755 17.503008 3.115811 -3.678837 -3.781087 -14.192657 2.149516 18.549017 3.214936 7.490079 -2.420317 -5.864249 1.511346 -7.954247 -13.662595 -3.316702 -4.888320 -7.657606 -46.261204 2.232733 -5.285914 2.049905 -11.787593 16.304390 -38.756531 -14.045341 13.081208 -16.639374 10.933766 -13.081347 -16.422852 10.523071 0.080374 1.899790 -1.323086 
-16.162981 107.153374 0.732847 14.631766 23.868651 16.174397 3.547014 13.111196 -0.152817 -10.568231 1.364316 -18.670942 2.470544 20.564514 4.905529 -2.581600 2.763156 0.964712 2.656454 14.364815 2.562953 2.622641 -0.089060 5.759760 3.548628 16.494251 2.808445 1.341841 2.846886 -3.096402 0.575220 9.831407 3.258031 0.142431 -0.106783 2.551588 3.166244 11.704847 7.167386 -3.670145 20.072903 4.605344 9.618830 -4.600209 13.833405 14.420379 18.728485 -3.148149 -25.907028 -12.268766 17.412811 -35.727934 -17.836190 -27.339335 -22.946465 -13.501798 13.434408 -1.707641 2.045703 -0.800545 -1.914080 13.936778 0.943369 8.206336 -2.181433 -8.876638 -7.828319 5.036900 -14.686419 18.445069 -15.099523 -1.688747 -30.906839 3.031967 12.368343 -3.387731 12.785208 -5.351943 1.715727 -9.873152 28.016953 -5.213719 -1.289422 0.801979 5.980341 -1.536672 7.823285 31.490765 -7.191475 31.500180 -32.185143 -13.030337 31.602243 -5.929646 0.175539 -6.137490 -27.149736 -30.404022 17.499203 3.590767 -4.708740 -4.027122 -14.200451 2.150327 18.549387 2.861188 7.567430 -2.911782 -5.870551 1.513565 -7.939291 -13.249233 -3.087605 -4.755103 -7.667991 -46.252750 2.225609 -4.934184 1.658985 -11.775177 16.307016 -38.766098 -14.061152 12.311094 -16.218752 10.923839 -13.080981 -16.422102 10.528233 0.284917 2.119570 -1.498971 
-13.304179 106.951347 0.405030 14.306999 23.886546 16.667349 3.534423 13.124722 -0.146487 -10.213435 1.440703 -18.688487 2.463871 20.573275 4.902635 -2.278162 2.628728 1.276079 2.650309 14.363271 2.558667 2.989322 0.255201 6.220539 3.534645 16.504749 2.805905 1.204866 2.740167 -3.110850 0.581581 9.822450 3.265866 0.311493 -0.672259 2.622595 3.162391 11.706342 7.165116 -3.987998 20.621456 4.651207 9.622087 -4.596079 13.826420 14.861370 19.094328 -2.791405 -25.903273 -12.262961 17.413080 -36.930461 -18.987554 -28.023059 -22.938353 -13.499005 13.442182 -1.518804 1.882174 -2.269023 -1.910925 13.925809 0.944048 8.725181 -2.366552 -9.117056 -7.823341 5.045717 -14.697596 19.923739 -15.710209 -2.471470 -30.907141 3.034391 12.362690 -1.573660 12.262315 -2.034695 1.721937 -9.867188 28.013741 -4.364652 -1.334995 1.511939 5.979613 -1.542285 7.822528 31.356466 -6.914163 30.901767 -32.188622 -13.032885 31.594652 -6.283880 0.402981 -6.231065 -27.149075 -30.401381 17.502699 3.983306 -5.785615 -4.549146 -14.204506 2.148279 18.553173 2.699222 7.003209 -3.277676 -5.878255 1.511514 -7.925184 -12.976093 -2.842362 -4.515804 -7.676969 -46.242889 2.221776 -4.890662 1.447514 -12.068009 16.317535 -38.770363 -14.080007 11.320360 -15.961694 11.197492 -13.086215 -16.418779 10.525055 0.028129 1.888747 -1.811108 
